<?xml version="1.0" encoding="UTF-8" standalone="no"?>
<svg
   xmlns:dc="http://purl.org/dc/elements/1.1/"
   xmlns:cc="http://creativecommons.org/ns#"
   xmlns:rdf="http://www.w3.org/1999/02/22-rdf-syntax-ns#"
   xmlns:svg="http://www.w3.org/2000/svg"
   xmlns="http://www.w3.org/2000/svg"
   xmlns:xlink="http://www.w3.org/1999/xlink"
   xmlns:sodipodi="http://sodipodi.sourceforge.net/DTD/sodipodi-0.dtd"
   xmlns:inkscape="http://www.inkscape.org/namespaces/inkscape"
   width="24"
   height="24"
   version="1.1"
   viewBox="0 0 24 24"
   id="svg2"
   inkscape:version="0.91 r13725"
   sodipodi:docname="com.github.artemanufrij.showmypictures.svg">
  <metadata
     id="metadata93">
    <rdf:RDF>
      <cc:Work
         rdf:about="">
        <dc:format>image/svg+xml</dc:format>
        <dc:type
           rdf:resource="http://purl.org/dc/dcmitype/StillImage" />
      </cc:Work>
    </rdf:RDF>
  </metadata>
  <sodipodi:namedview
     pagecolor="#ffffff"
     bordercolor="#666666"
     borderopacity="1"
     objecttolerance="10"
     gridtolerance="10"
     guidetolerance="10"
     inkscape:pageopacity="0"
     inkscape:pageshadow="2"
     inkscape:window-width="1441"
     inkscape:window-height="1188"
     id="namedview91"
     showgrid="false"
     inkscape:zoom="27.812867"
     inkscape:cx="11.998623"
     inkscape:cy="11.977073"
     inkscape:window-x="1348"
     inkscape:window-y="193"
     inkscape:window-maximized="0"
     inkscape:current-layer="svg2" />
  <defs
     id="defs4">
    <radialGradient
       id="radialGradient4214"
       cx="24"
       cy="-4.5"
       r="20"
       fx="24"
       fy="-4.5"
       gradientTransform="matrix(1,0,0,0.7,8.7243652e-7,8.15)"
       gradientUnits="userSpaceOnUse"
       xlink:href="#linearGradient4208" />
    <linearGradient
       id="linearGradient4208">
      <stop
         style="stop-color:#ffffff;stop-opacity:0.25098041"
         offset="0"
         id="stop8" />
      <stop
         style="stop-color:#ffffff;stop-opacity:0"
         offset="1"
         id="stop10" />
    </linearGradient>
    <linearGradient
       id="linearGradient5397"
       x1="24"
       x2="24"
       y1="5"
       y2="43"
       gradientTransform="matrix(0.45945947,0,0,0.45945947,0.97296959,0.972977)"
       gradientUnits="userSpaceOnUse"
       xlink:href="#linearGradient3924-64" />
    <linearGradient
       id="linearGradient3924-64">
      <stop
         style="stop-color:#ffffff;stop-opacity:1"
         offset="0"
         id="stop14" />
      <stop
         style="stop-color:#ffffff;stop-opacity:0.23529412"
         offset=".063"
         id="stop16" />
      <stop
         style="stop-color:#ffffff;stop-opacity:0.15686275"
         offset=".951"
         id="stop18" />
      <stop
         style="stop-color:#ffffff;stop-opacity:0.39215687"
         offset="1"
         id="stop20" />
    </linearGradient>
    <radialGradient
       id="radialGradient3082-6"
       cx="4.993"
       cy="43.5"
       r="2.5"
       fx="4.993"
       fy="43.5"
       gradientTransform="matrix(2.003784,0,0,1.4,27.98813,-17.4)"
       gradientUnits="userSpaceOnUse"
       xlink:href="#linearGradient3688-166-749-9" />
    <linearGradient
       id="linearGradient3688-166-749-9">
      <stop
         style="stop-color:#181818;stop-opacity:1"
         offset="0"
         id="stop24" />
      <stop
         style="stop-color:#181818;stop-opacity:0"
         offset="1"
         id="stop26" />
    </linearGradient>
    <radialGradient
       id="radialGradient3084-4"
       cx="4.993"
       cy="43.5"
       r="2.5"
       fx="4.993"
       fy="43.5"
       gradientTransform="matrix(2.003784,0,0,1.4,-20.01187,-104.4)"
       gradientUnits="userSpaceOnUse"
       xlink:href="#linearGradient3688-166-749-9" />
    <linearGradient
       id="linearGradient3086-8"
       x1="25.058"
       x2="25.058"
       y1="47.028"
       y2="39.999"
       gradientUnits="userSpaceOnUse"
       xlink:href="#linearGradient3702-501-757-1" />
    <linearGradient
       id="linearGradient3702-501-757-1">
      <stop
         style="stop-color:#181818;stop-opacity:0"
         offset="0"
         id="stop31" />
      <stop
         style="stop-color:#181818;stop-opacity:1"
         offset=".5"
         id="stop33" />
      <stop
         style="stop-color:#181818;stop-opacity:0"
         offset="1"
         id="stop35" />
    </linearGradient>
    <linearGradient
       id="linearGradient4256">
      <stop
         style="stop-color:#e0e0e0;stop-opacity:1"
         offset="0"
         id="stop38" />
      <stop
         style="stop-color:#ffffff;stop-opacity:1"
         offset="1"
         id="stop40" />
    </linearGradient>
    <linearGradient
       id="linearGradient4234"
       x1="13"
       x2="13"
       y1="21"
       y2="3"
       gradientUnits="userSpaceOnUse"
       xlink:href="#linearGradient4256" />
    <linearGradient
       gradientTransform="matrix(0.30434767,0,0,0.31250042,2.2608727,2.5624833)"
       inkscape:collect="always"
       xlink:href="#linearGradient4293"
       id="linearGradient4299"
       x1="24.875423"
       y1="26.928144"
       x2="24.875423"
       y2="43.0625"
       gradientUnits="userSpaceOnUse" />
    <linearGradient
       inkscape:collect="always"
       id="linearGradient4293">
      <stop
         style="stop-color:#027e9d;stop-opacity:1"
         offset="0"
         id="stop4295" />
      <stop
         style="stop-color:#1ccefc;stop-opacity:1"
         offset="1"
         id="stop4297" />
    </linearGradient>
    <radialGradient
       inkscape:collect="always"
       xlink:href="#linearGradient4285"
       id="radialGradient4291"
       cx="32.1875"
       cy="41.159714"
       fx="32.1875"
       fy="41.159714"
       r="23"
       gradientTransform="matrix(0.30471613,0,0,0.25996382,2.2575568,0.32079588)"
       gradientUnits="userSpaceOnUse" />
    <linearGradient
       inkscape:collect="always"
       id="linearGradient4285">
      <stop
         style="stop-color:#fdf68f;stop-opacity:1"
         offset="0"
         id="stop4287" />
      <stop
         style="stop-color:#02667e;stop-opacity:1"
         offset="1"
         id="stop4289" />
    </linearGradient>
  </defs>
  <g
     transform="matrix(0.55,0,0,0.3333336,-1.2000011,7.33333)"
     style="display:inline"
     id="g43">
    <g
       transform="matrix(1.052632,0,0,1.285713,-1.263158,-13.42854)"
       style="opacity:0.4"
       id="g45">
      <rect
         width="5"
         height="7"
         x="38"
         y="40"
         style="fill:url(#radialGradient3082-6);fill-opacity:1;stroke:none"
         id="rect47" />
      <rect
         width="5"
         height="7"
         x="-10"
         y="-47"
         transform="scale(-1,-1)"
         style="fill:url(#radialGradient3084-4);fill-opacity:1;stroke:none"
         id="rect49" />
      <rect
         width="28"
         height="7"
         x="10"
         y="40"
         style="fill:url(#linearGradient3086-8);fill-opacity:1;stroke:none"
         id="rect51" />
    </g>
  </g>
  <path
     d="m 3.5,2.5 c -0.5626486,0 -1,0.437351 -1,1 l 0,17 c 0,0.562649 0.4373514,1 1,1 l 17,0 c 0.562649,0 1,-0.437351 1,-1 l 0,-17 c 0,-0.562649 -0.437351,-1 -1,-1 l -17,0 z"
     style="display:inline;opacity:1;fill:url(#linearGradient4234);fill-opacity:1;stroke:none;stroke-width:1;stroke-miterlimit:4;stroke-dasharray:none;stroke-opacity:0"
     id="path53" />
  <rect
     width="19"
     height="19"
     x="2.5"
     y="2.5"
     rx="1"
     ry="1"
     style="color:#000000;display:inline;overflow:visible;visibility:visible;opacity:0.5;fill:none;fill-opacity:1;stroke:#000000;stroke-width:1;stroke-linecap:round;stroke-linejoin:round;stroke-miterlimit:4;stroke-dasharray:none;stroke-dashoffset:0;stroke-opacity:1;marker:none;enable-background:accumulate"
     id="rect83" />
  <rect
     width="17"
     height="17"
     x="3.5"
     y="3.5"
     style="opacity:0.5;fill:none;stroke:url(#linearGradient5397);stroke-width:0.99999988;stroke-linecap:round;stroke-linejoin:round;stroke-miterlimit:4;stroke-dasharray:none;stroke-dashoffset:0;stroke-opacity:1"
     id="rect85" />
  <g
     style="display:none"
     transform="translate(0,-24)"
     id="g87">
    <rect
       style="fill:url(#radialGradient4214);fill-opacity:1;fill-rule:evenodd;stroke:none;stroke-width:1px;stroke-linecap:butt;stroke-linejoin:miter;stroke-opacity:1"
       width="40"
       height="14"
       x="4"
       y="5"
       ry="2"
       id="rect89" />
  </g>
  <rect
     style="opacity:1;fill:none;fill-opacity:1;stroke:#a0a0a0;stroke-width:1;stroke-linecap:round;stroke-linejoin:miter;stroke-miterlimit:4;stroke-dasharray:none;stroke-opacity:1"
     id="rect4221"
     width="15"
     height="12"
     x="4.5"
     y="4.5"
     rx="0"
     ry="0" />
  <rect
     y="5"
     x="4.9999995"
     height="6"
     width="14.01695"
     id="rect4256"
     style="opacity:1;fill:url(#radialGradient4291);fill-opacity:1;stroke:none;stroke-width:0;stroke-linecap:round;stroke-linejoin:round;stroke-miterlimit:4;stroke-dasharray:none;stroke-opacity:1" />
  <circle
     style="opacity:1;fill:#fde752;fill-opacity:1;stroke:none;stroke-width:1;stroke-linecap:round;stroke-linejoin:round;stroke-miterlimit:4;stroke-dasharray:none;stroke-opacity:1"
     id="path4258"
     cx="12"
     cy="11"
     r="2" />
  <rect
     style="opacity:1;fill:url(#linearGradient4299);fill-opacity:1;stroke:none;stroke-width:0;stroke-linecap:round;stroke-linejoin:round;stroke-miterlimit:4;stroke-dasharray:none;stroke-opacity:1"
     id="rect4254"
     width="14"
     height="5"
     x="4.9999995"
     y="11" />
  <path
     style="fill:#fde752;fill-opacity:0.89411765;fill-rule:evenodd;stroke:none;stroke-width:1px;stroke-linecap:butt;stroke-linejoin:miter;stroke-opacity:1"
     d="m 10,11 c 0,0 0.480565,0.474433 0.507592,0.81779 0.02421,0.307323 -0.339204,0.51997 -0.331455,0.828648 0.0099,0.393803 0.72032,0.536026 0.754771,0.927674 0.02668,0.302476 -0.341713,0.640994 -0.328781,0.944845 0.01751,0.411693 0.334522,0.544208 0.557333,0.848186 C 11.278595,15.529661 11.500001,16 11.500001,16 l 1.25,0 c 0,0 0.418643,-0.306392 0.406246,-0.533816 -0.02479,-0.45405 -0.350702,-0.445173 -0.361604,-0.900075 -0.0065,-0.273618 0.500605,-0.203576 0.552428,-0.469559 0.05763,-0.29579 -0.55989,-0.589712 -0.49719,-0.883888 0.08887,-0.41691 0.99484,-0.373021 1.038569,-0.801012 C 13.9189,12.113847 13.450378,11.979042 13.468601,11.679687 13.487759,11.363802 14,11 14,11 Z"
     id="path4264"
     inkscape:connector-curvature="0"
     sodipodi:nodetypes="csssssccsssssscc" />
  <path
     style="fill:#ffffff;fill-opacity:1;fill-rule:evenodd;stroke:none;stroke-width:1px;stroke-linecap:butt;stroke-linejoin:miter;stroke-opacity:1"
     d="m 6.6378073,6.7798327 c 0,0 0.3225186,-0.6074569 0.7172444,-0.6720963 0.3308907,-0.054185 0.9621537,0.2969685 0.9621537,0.2969685 0,0 0.5907693,-0.492984 1.0146413,-0.3907489 0.2974787,0.071745 0.5947958,0.5783074 0.5947958,0.5783074 0,0 0.9090315,0.02034 1.0496205,0.3594941 0.135697,0.3273863 -0.338144,0.7438021 -0.717242,0.8283994 -0.3722277,0.083067 -0.892185,-0.1563087 -0.892185,-0.1563087 0,0 -0.4149199,0.3536368 -0.7172407,0.3751288 C 8.3082124,8.02323 7.6524495,7.6082196 7.6524495,7.6082196 c 0,0 -0.4810143,0.410278 -0.9096799,0.3282413 C 6.3561731,7.8624603 5.884518,7.4224469 6.0255237,7.0924324 6.1017952,6.9139182 6.6378073,6.7798327 6.6378073,6.7798327 Z"
     id="path4301"
     inkscape:connector-curvature="0"
     sodipodi:nodetypes="cscscsscscssc" />
  <path
     style="fill:#ffffff;fill-opacity:1;fill-rule:evenodd;stroke:none;stroke-width:1px;stroke-linecap:butt;stroke-linejoin:miter;stroke-opacity:1"
     d="m 15.518424,6.0173024 c -0.276715,0.070308 -0.547241,0.587329 -0.547241,0.587329 0,0 -0.723469,-0.088512 -0.881663,0.1334861 -0.21266,0.2984302 -0.02462,0.8578984 0.334425,1.0144737 0.252843,0.1102573 0.790459,-0.2669646 0.790459,-0.2669646 0,0 0.584825,0.5850911 0.942463,0.5072405 0.308711,-0.067208 0.516834,-0.5139152 0.516834,-0.5139152 0,0 0.534523,0.4416546 0.881663,0.2936652 0.506687,-0.2160166 0.591114,-1.094433 0.197621,-1.4483015 -0.235352,-0.2116489 -0.866466,0.093438 -0.866466,0.093438 0,0 -0.906339,-0.5177779 -1.368095,-0.4004514 z"
     id="path4303"
     inkscape:connector-curvature="0"
     sodipodi:nodetypes="scsscscsscs" />
  <g
     style="font-style:normal;font-weight:normal;font-size:40px;line-height:125%;font-family:sans-serif;letter-spacing:0px;word-spacing:0px;fill:#000000;fill-opacity:1;stroke:none;stroke-width:1px;stroke-linecap:butt;stroke-linejoin:miter;stroke-opacity:1"
     id="text4266"
     transform="matrix(0.31940093,0,0,0.20869583,1.5220295,8.2574459)">
    <path
       d="m 22.165379,54.277435 -0.151368,0.136719 q -0.620117,-0.249023 -0.620117,-0.830078 0,-0.04395 0.0098,-0.263672 0.01465,-0.224609 0.01465,-0.258789 0,-0.654297 -0.71289,-0.654297 l -0.136719,0 q -0.537109,0 -1.918945,0.336914 -0.69336,0.166016 -0.717774,0.166016 -0.332031,0 -0.78125,-0.322266 l 0.385742,-4.189453 q 0.263672,-2.866211 0.81543,-4.111328 0.117188,0.0293 0.361328,0.07324 -0.131836,0.444336 -0.371094,1.992188 -0.229492,1.440429 -0.27832,2.011718 -0.102539,1.137696 -0.205078,2.416993 -0.08301,1.069335 -0.08301,1.225585 l 0,0.06836 q 0,0.141601 0.03906,0.175781 0.03906,0.0293 0.214843,0.0293 0.04883,0 0.22461,-0.04883 0.180664,-0.04883 0.180664,-0.04883 0,0 0,0 0.126953,-0.01465 1.513672,-0.214844 0.883789,-0.126953 0.932617,-0.126953 0.01953,0 0.136719,-0.0049 0.117187,-0.0049 0.136718,-0.0049 0.146485,0 0.239258,0.03906 0.444336,0.175781 0.556641,0.761718 0.04395,0.219727 0.04395,1.000977 0,0.268555 0.170899,0.424805 l 0,0.219726 z"
       style="font-style:normal;font-variant:normal;font-weight:normal;font-stretch:normal;font-size:10px;font-family:Daniel;-inkscape-font-specification:Daniel"
       id="path4271"
       inkscape:connector-curvature="0" />
    <path
       d="m 28.024754,51.655365 q 0,0.522461 -0.219727,0.893555 -0.200195,0.336914 -1.420898,0.664062 -1.088868,0.292969 -1.655274,0.292969 -0.664062,0 -1.313476,-0.317383 -0.786133,-0.390625 -0.786133,-0.97168 0,-0.258789 0.297851,-0.527343 0.263672,-0.19043 0.795899,-0.717774 0.351562,-0.429687 1.289062,-0.693359 0.791016,-0.22461 1.479492,-0.22461 0.185547,0 0.556641,0.161133 0.371094,0.170899 0.507813,0.3125 0.136718,0.151367 0.302734,0.546875 0.166016,0.390625 0.166016,0.581055 z m -0.498047,-0.03906 q 0,-0.361328 -0.434571,-0.688476 -0.40039,-0.307617 -0.791015,-0.307617 -0.07324,0 -1.137696,0.209961 -0.410156,0.08301 -0.74707,0.317382 -1.152344,0.820313 -1.152344,1.132813 0,0.263672 0.629883,0.478516 0.53711,0.185546 0.874024,0.185546 0.502929,0 1.411132,-0.205078 0.830079,-0.185547 1.181641,-0.561523 0.166016,-0.170899 0.166016,-0.561524 z"
       style="font-style:normal;font-variant:normal;font-weight:normal;font-stretch:normal;font-size:10px;font-family:Daniel;-inkscape-font-specification:Daniel"
       id="path4273"
       inkscape:connector-curvature="0" />
    <path
       d="m 30.002293,45.087982 -0.278321,6.171875 q -0.02441,0.01953 -0.02441,0.117188 0,0.09766 0.02441,0.268554 0.05371,0.458985 0.253907,1.738282 -0.0098,0.04395 -0.166016,0.09766 -0.0293,0.0049 -0.05371,0.0049 -0.512695,0 -0.664062,-1.181641 -0.0049,-0.02441 -0.0049,-0.09766 0,-0.229492 0.02441,-0.942383 0.03418,-0.917969 0.08301,-1.918945 0.01465,-0.38086 0.112304,-1.416016 0.09277,-0.947266 0.09277,-1.40625 0,-1.401367 0.185547,-1.958008 l 0.07324,-0.0049 q 0.01465,0 0.02441,0 0.166015,0 0.224609,0.185547 0.04395,0.122071 0.09277,0.341797 z"
       style="font-style:normal;font-variant:normal;font-weight:normal;font-stretch:normal;font-size:10px;font-family:Daniel;-inkscape-font-specification:Daniel"
       id="path4275"
       inkscape:connector-curvature="0" />
    <path
       d="m 32.370457,48.701263 0.0049,0.01953 q 0,0.190429 -0.400391,0.463867 -0.117188,-0.03418 -0.478516,-0.400391 0.146485,-0.351562 0.317383,-0.351562 0.161133,0 0.556641,0.268554 z m -0.458985,3.730469 q -0.05859,0.791016 -0.05859,0.917969 -0.234375,0.131836 -0.419922,0.131836 -0.07813,-0.22461 -0.07813,-0.556641 0,-1.845703 0.458984,-1.958008 0.161133,0.07324 0.175781,0.249024 -0.0049,-0.06348 -0.01465,-0.06836 0.0049,0.05371 0.0049,0.131836 0,0.34668 -0.06836,1.152344 z"
       style="font-style:normal;font-variant:normal;font-weight:normal;font-stretch:normal;font-size:10px;font-family:Daniel;-inkscape-font-specification:Daniel"
       id="path4277"
       inkscape:connector-curvature="0" />
    <path
       d="m 38.762058,50.537201 q -0.634765,0.27832 -2.021484,0.722656 -1.303711,0.419922 -1.582031,0.517578 -1.171875,0.434571 -1.386719,0.712891 0.0049,0.136719 0.112305,0.195312 0.249023,0.141602 1.049804,0.141602 0.278321,0 1.28418,-0.214844 1.347656,-0.283203 2.470703,-0.59082 -0.05859,0.307617 -0.253906,0.410156 -0.205078,0.112305 -1.508789,0.498047 -1.347656,0.400391 -1.552735,0.400391 -0.06836,0 -0.458984,0.03418 -0.385742,0.0293 -0.454102,0.0293 -0.40039,0 -0.898437,-0.190429 -0.600586,-0.229493 -0.600586,-0.566407 0,-0.429687 0.268555,-0.600586 0.04395,-0.02441 0.605468,-0.283203 1.176758,-0.532226 1.972657,-0.698242 0.268554,-0.05859 0.693359,-0.244141 0.483399,-0.219726 0.683594,-0.27832 L 37.74155,50.4249 q 0.278321,-0.05859 0.488282,-0.273437 -0.136719,-1.733399 -0.136719,-4.272461 0,-1.445313 0.224609,-1.523438 0.185547,0.08301 0.239258,0.151367 0.09277,0.122071 0.112305,0.449219 0,-0.01465 0,-0.01465 -0.0049,0 -0.0049,1.123047 l 0.0049,3.286132 q 0,0.57129 0.09277,1.186524 z"
       style="font-style:normal;font-variant:normal;font-weight:normal;font-stretch:normal;font-size:10px;font-family:Daniel;-inkscape-font-specification:Daniel"
       id="path4279"
       inkscape:connector-curvature="0" />
    <path
       d="m 44.006199,53.422943 q -0.102539,0.141602 -0.224609,0.141602 -0.07813,0 -0.527344,-0.46875 -0.449219,-0.473633 -0.600586,-0.473633 0,0 0,0 0,0.0098 -1.064453,0.410156 -1.088867,0.405274 -1.386719,0.405274 -0.244141,0 -0.541992,-0.239258 -0.297852,-0.239258 -0.297852,-0.449219 0,-0.541992 1.186524,-1.264648 1.113281,-0.683594 1.699218,-0.683594 0.244141,0 0.439454,0.27832 l 0,0.209961 q -0.09766,0.141602 -0.22461,0.141602 -0.02441,0 -0.170898,-0.06348 -0.141602,-0.06348 -0.170899,-0.06348 -0.195312,0 -0.893554,0.400391 -0.664063,0.375977 -0.888672,0.561524 -0.22461,0.195312 -0.288086,0.444335 0.170898,0.161133 0.405273,0.161133 0.122071,0 1.176758,-0.405273 1.049805,-0.410156 1.269531,-0.410156 0.322266,0 0.463867,0.161132 0.03418,0.03906 0.249024,0.439454 0.161133,0.302734 0.390625,0.546875 l 0,0.219726 z"
       style="font-style:normal;font-variant:normal;font-weight:normal;font-stretch:normal;font-size:10px;font-family:Daniel;-inkscape-font-specification:Daniel"
       id="path4281"
       inkscape:connector-curvature="0" />
    <path
       d="m 48.459324,51.45517 q 0,0.05371 -0.06348,0.27832 -0.06836,0.234375 -0.06836,0.258789 0,0.01465 0,0.03418 0,0.126953 -0.01953,0.351562 -0.244141,0.576172 -0.639649,1.738281 -0.131836,0.141602 -0.517578,0.966797 0.0098,-0.0049 0.0098,-0.0098 l 0,0.0049 q 0,0.01465 -0.278321,0.766601 -0.151367,0.405274 -0.415039,1.044922 -0.03418,0.166016 -0.107421,0.561523 -0.0098,0.06836 -0.126954,0.361329 -0.09766,0.239257 -0.09766,0.361328 0,0.04395 0.01953,0.07813 -0.09277,0.15625 -0.346679,0.410156 l -0.214844,0 q -0.146484,-0.273438 -0.146484,-0.400391 0,-0.483398 0.644531,-2.138672 0.253906,-0.654296 0.625,-1.508789 0.12207,-0.219726 0.395508,-0.810547 0.09277,-0.288085 0.195312,-0.507812 0.09277,-0.141602 0.317383,-0.791016 -0.01465,-0.01465 -0.01465,-0.04883 0,-0.04883 0.02441,-0.126953 0.0098,-0.03906 0.0098,-0.06348 0,-0.04883 -0.03418,-0.04883 -0.04395,0 -0.585938,0.219727 -0.541992,0.219727 -0.576172,0.219727 -0.102539,0 -0.498047,0.06348 -0.390625,0.06348 -0.444336,0.06348 -0.395507,0 -0.717773,-0.639649 -0.283203,-0.561523 -0.283203,-1.02539 0,-0.136719 0.141601,-0.405274 l 0.283203,0 q 0.361329,1.513672 1.015625,1.513672 0.551758,0 1.328125,-0.571289 l 0.869141,-0.639648 q 0.317383,0.112304 0.317383,0.439453 z"
       style="font-style:normal;font-variant:normal;font-weight:normal;font-stretch:normal;font-size:10px;font-family:Daniel;-inkscape-font-specification:Daniel"
       id="path4283"
       inkscape:connector-curvature="0" />
  </g>
</svg>
