<?xml version="1.0" encoding="UTF-8" standalone="no"?>
<svg
   xmlns:dc="http://purl.org/dc/elements/1.1/"
   xmlns:cc="http://creativecommons.org/ns#"
   xmlns:rdf="http://www.w3.org/1999/02/22-rdf-syntax-ns#"
   xmlns:svg="http://www.w3.org/2000/svg"
   xmlns="http://www.w3.org/2000/svg"
   xmlns:xlink="http://www.w3.org/1999/xlink"
   xmlns:sodipodi="http://sodipodi.sourceforge.net/DTD/sodipodi-0.dtd"
   xmlns:inkscape="http://www.inkscape.org/namespaces/inkscape"
   width="32"
   height="32"
   version="1.1"
   id="svg2"
   inkscape:version="0.91 r13725"
   sodipodi:docname="com.github.artemanufrij.showmypictures.svg">
  <metadata
     id="metadata98">
    <rdf:RDF>
      <cc:Work
         rdf:about="">
        <dc:format>image/svg+xml</dc:format>
        <dc:type
           rdf:resource="http://purl.org/dc/dcmitype/StillImage" />
      </cc:Work>
    </rdf:RDF>
  </metadata>
  <sodipodi:namedview
     pagecolor="#ffffff"
     bordercolor="#666666"
     borderopacity="1"
     objecttolerance="10"
     gridtolerance="10"
     guidetolerance="10"
     inkscape:pageopacity="0"
     inkscape:pageshadow="2"
     inkscape:window-width="1730"
     inkscape:window-height="1220"
     id="namedview96"
     showgrid="false"
     inkscape:zoom="10.429825"
     inkscape:cx="-22.257986"
     inkscape:cy="17.627927"
     inkscape:window-x="270"
     inkscape:window-y="30"
     inkscape:window-maximized="0"
     inkscape:current-layer="svg2" />
  <defs
     id="defs4">
    <linearGradient
       id="linearGradient4161"
       x1="24"
       x2="24"
       y1="5"
       y2="43"
       gradientTransform="matrix(0.67567568,0,0,0.67567568,-0.21621703,-0.21620627)"
       gradientUnits="userSpaceOnUse"
       xlink:href="#linearGradient3924-0" />
    <linearGradient
       id="linearGradient3924-0">
      <stop
         offset="0"
         style="stop-color:#ffffff;stop-opacity:1"
         id="stop8" />
      <stop
         offset=".063"
         style="stop-color:#ffffff;stop-opacity:0.23529412"
         id="stop10" />
      <stop
         offset=".951"
         style="stop-color:#ffffff;stop-opacity:0.15686275"
         id="stop12" />
      <stop
         offset="1"
         style="stop-color:#ffffff;stop-opacity:0.39215687"
         id="stop14" />
    </linearGradient>
    <radialGradient
       id="radialGradient2976"
       cx="4.993"
       cy="43.5"
       r="2.5"
       fx="4.993"
       fy="43.5"
       gradientTransform="matrix(2.003784,0,0,1.4,27.98813,-17.4)"
       gradientUnits="userSpaceOnUse"
       xlink:href="#linearGradient3688-166-749-6" />
    <linearGradient
       id="linearGradient3688-166-749-6">
      <stop
         offset="0"
         style="stop-color:#181818;stop-opacity:1"
         id="stop18" />
      <stop
         offset="1"
         style="stop-color:#181818;stop-opacity:0"
         id="stop20" />
    </linearGradient>
    <radialGradient
       id="radialGradient2978"
       cx="4.993"
       cy="43.5"
       r="2.5"
       fx="4.993"
       fy="43.5"
       gradientTransform="matrix(2.003784,0,0,1.4,-20.01187,-104.4)"
       gradientUnits="userSpaceOnUse"
       xlink:href="#linearGradient3688-464-309-7" />
    <linearGradient
       id="linearGradient3688-464-309-7">
      <stop
         offset="0"
         style="stop-color:#181818;stop-opacity:1"
         id="stop24" />
      <stop
         offset="1"
         style="stop-color:#181818;stop-opacity:0"
         id="stop26" />
    </linearGradient>
    <linearGradient
       id="linearGradient2980"
       x1="25.058"
       x2="25.058"
       y1="47.028"
       y2="39.999"
       gradientUnits="userSpaceOnUse"
       xlink:href="#linearGradient3702-501-757-3" />
    <linearGradient
       id="linearGradient3702-501-757-3">
      <stop
         offset="0"
         style="stop-color:#181818;stop-opacity:0"
         id="stop30" />
      <stop
         offset=".5"
         style="stop-color:#181818;stop-opacity:1"
         id="stop32" />
      <stop
         offset="1"
         style="stop-color:#181818;stop-opacity:0"
         id="stop34" />
    </linearGradient>
    <linearGradient
       id="linearGradient4256">
      <stop
         offset="0"
         style="stop-color:#e0e0e0;stop-opacity:1"
         id="stop37" />
      <stop
         offset="1"
         style="stop-color:#ffffff;stop-opacity:1"
         id="stop39" />
    </linearGradient>
    <linearGradient
       id="linearGradient4248"
       x1="16"
       x2="16"
       y1="29"
       y2="3"
       gradientUnits="userSpaceOnUse"
       xlink:href="#linearGradient4256" />
    <linearGradient
       gradientTransform="matrix(0.43478239,0,0,0.4375006,2.0869618,2.1874787)"
       inkscape:collect="always"
       xlink:href="#linearGradient4293"
       id="linearGradient4299"
       x1="24.875423"
       y1="26.928144"
       x2="24.875423"
       y2="43.0625"
       gradientUnits="userSpaceOnUse" />
    <linearGradient
       inkscape:collect="always"
       id="linearGradient4293">
      <stop
         style="stop-color:#027e9d;stop-opacity:1"
         offset="0"
         id="stop4295" />
      <stop
         style="stop-color:#1ccefc;stop-opacity:1"
         offset="1"
         id="stop4297" />
    </linearGradient>
    <radialGradient
       inkscape:collect="always"
       xlink:href="#linearGradient4285"
       id="radialGradient4291"
       cx="32.1875"
       cy="41.159714"
       fx="32.1875"
       fy="41.159714"
       r="23"
       gradientTransform="matrix(0.43478237,0,0,0.34661839,2.0869622,-0.23893748)"
       gradientUnits="userSpaceOnUse" />
    <linearGradient
       inkscape:collect="always"
       id="linearGradient4285">
      <stop
         style="stop-color:#fdf68f;stop-opacity:1"
         offset="0"
         id="stop4287" />
      <stop
         style="stop-color:#02667e;stop-opacity:1"
         offset="1"
         id="stop4289" />
    </linearGradient>
  </defs>
  <g
     transform="matrix(0.6999997,0,0,0.3333336,-0.8000002,15.33333)"
     style="display:inline"
     id="g42">
    <g
       transform="matrix(1.052632,0,0,1.285713,-1.263158,-13.42854)"
       style="opacity:0.4"
       id="g44">
      <rect
         width="5"
         height="7"
         x="38"
         y="40"
         style="fill:url(#radialGradient2976);fill-opacity:1;stroke:none"
         id="rect46" />
      <rect
         width="5"
         height="7"
         x="-10"
         y="-47"
         transform="scale(-1,-1)"
         style="fill:url(#radialGradient2978);fill-opacity:1;stroke:none"
         id="rect48" />
      <rect
         width="28"
         height="7"
         x="10"
         y="40"
         style="fill:url(#linearGradient2980);fill-opacity:1;stroke:none"
         id="rect50" />
    </g>
  </g>
  <rect
     width="27"
     height="27"
     x="2.5"
     y="2.5"
     rx="2.16"
     ry="2.16"
     style="color:#000000;display:inline;overflow:visible;visibility:visible;fill:url(#linearGradient4248);fill-opacity:1;fill-rule:nonzero;stroke:none;stroke-width:0.99999994;marker:none;enable-background:accumulate"
     id="rect52" />
  <rect
     width="25"
     height="25"
     x="3.5"
     y="3.5"
     rx="1.087"
     ry="1.087"
     style="opacity:0.5;fill:none;stroke:url(#linearGradient4161);stroke-width:1;stroke-linecap:round;stroke-linejoin:round;stroke-miterlimit:4;stroke-dasharray:none;stroke-dashoffset:0;stroke-opacity:1"
     id="rect58" />
  <rect
     width="27"
     height="27"
     x="2.5"
     y="2.5"
     rx="2.16"
     ry="2.16"
     style="color:#000000;display:inline;overflow:visible;visibility:visible;opacity:0.5;fill:none;stroke:#000000;stroke-width:1;stroke-linecap:round;stroke-linejoin:round;stroke-miterlimit:4;stroke-dasharray:none;stroke-dashoffset:0;stroke-opacity:1;marker:none;enable-background:accumulate"
     id="rect60" />
  <rect
     style="opacity:1;fill:none;fill-opacity:1;stroke:#a0a0a0;stroke-width:1;stroke-linecap:round;stroke-linejoin:miter;stroke-miterlimit:4;stroke-dasharray:none;stroke-opacity:1"
     id="rect4226"
     width="21"
     height="16"
     x="5.5"
     y="5.5"
     rx="0"
     ry="0" />
  <rect
     y="6"
     x="6.0000014"
     height="8"
     width="20"
     id="rect4256"
     style="opacity:1;fill:url(#radialGradient4291);fill-opacity:1;stroke:none;stroke-width:0;stroke-linecap:round;stroke-linejoin:round;stroke-miterlimit:4;stroke-dasharray:none;stroke-opacity:1" />
  <circle
     style="opacity:1;fill:#fde752;fill-opacity:1;stroke:none;stroke-width:1;stroke-linecap:round;stroke-linejoin:round;stroke-miterlimit:4;stroke-dasharray:none;stroke-opacity:1"
     id="path4258"
     cx="16"
     cy="14"
     r="3" />
  <rect
     style="opacity:1;fill:url(#linearGradient4299);fill-opacity:1;stroke:none;stroke-width:0;stroke-linecap:round;stroke-linejoin:round;stroke-miterlimit:4;stroke-dasharray:none;stroke-opacity:1"
     id="rect4254"
     width="20"
     height="7"
     x="6"
     y="14" />
  <path
     style="fill:#fde752;fill-opacity:0.89411765;fill-rule:evenodd;stroke:none;stroke-width:1px;stroke-linecap:butt;stroke-linejoin:miter;stroke-opacity:1"
     d="m 13,14.000001 c 0,0 0.720848,0.664201 0.761388,1.144903 0.03632,0.430261 -0.508806,0.727964 -0.497183,1.160106 0.01483,0.551324 1.080481,0.750445 1.132156,1.298752 0.04002,0.423457 -0.512568,0.897389 -0.49317,1.32278 0.02627,0.576368 0.501783,0.761895 0.835998,1.187455 C 14.917892,20.341528 15.250002,21 15.250002,21 L 17.125,21 c 0,0 0.627966,-0.428946 0.60937,-0.747348 -0.03718,-0.63567 -0.526052,-0.623232 -0.542406,-1.260095 -0.0098,-0.383072 0.750909,-0.285015 0.828643,-0.657387 0.08643,-0.414101 -0.839837,-0.825601 -0.745786,-1.237438 0.133311,-0.583677 1.49226,-0.522237 1.557853,-1.121422 0.04568,-0.416924 -0.657108,-0.605653 -0.629772,-1.024753 C 18.231632,14.509325 19,14.000001 19,14.000001 Z"
     id="path4264"
     inkscape:connector-curvature="0"
     sodipodi:nodetypes="csssssccsssssscc" />
  <path
     style="fill:#ffffff;fill-opacity:1;fill-rule:evenodd;stroke:none;stroke-width:1px;stroke-linecap:butt;stroke-linejoin:miter;stroke-opacity:1"
     d="m 7.8929302,8.169749 c 0,0 0.4515257,-0.9111854 1.0041413,-1.0081444 0.4632478,-0.081278 1.3470155,0.4454527 1.3470155,0.4454527 0,0 0.827077,-0.7394759 1.420498,-0.5861232 0.41647,0.1076165 0.832714,0.8674607 0.832714,0.8674607 0,0 1.272646,0.030511 1.469471,0.5392414 0.189975,0.4910793 -0.473403,1.1157028 -1.004141,1.2425988 -0.521119,0.1246 -1.249059,-0.234463 -1.249059,-0.234463 0,0 -0.580888,0.530455 -1.004137,0.562693 -0.477936,0.03638 -1.3960044,-0.586136 -1.3960044,-0.586136 0,0 -0.6734198,0.615417 -1.273552,0.492362 C 7.4986423,9.79369 6.8383253,9.13367 7.035733,8.6386483 7.1425127,8.3708771 7.8929302,8.169749 7.8929302,8.169749 Z"
     id="path4301"
     inkscape:connector-curvature="0"
     sodipodi:nodetypes="cscscsscscssc" />
  <path
     style="fill:#ffffff;fill-opacity:1;fill-rule:evenodd;stroke:none;stroke-width:1px;stroke-linecap:butt;stroke-linejoin:miter;stroke-opacity:1"
     d="m 21.277634,7.0259534 c -0.415072,0.1054619 -0.820861,0.8809937 -0.820861,0.8809937 0,0 -1.085204,-0.1327684 -1.322494,0.200229 -0.318992,0.4476455 -0.03692,1.2868479 0.501636,1.5217109 0.379265,0.165386 1.185688,-0.400447 1.185688,-0.400447 0,0 0.877239,0.877637 1.413698,0.760861 0.463066,-0.100812 0.77525,-0.770873 0.77525,-0.770873 0,0 0.801784,0.662482 1.322495,0.440498 0.760031,-0.324025 0.886671,-1.64165 0.296431,-2.1724528 -0.353028,-0.3174734 -1.299699,0.1401575 -1.299699,0.1401575 0,0 -1.359509,-0.7766669 -2.052144,-0.6006773 z"
     id="path4303"
     inkscape:connector-curvature="0"
     sodipodi:nodetypes="scsscscsscs" />
  <g
     style="font-style:normal;font-weight:normal;font-size:40px;line-height:125%;font-family:sans-serif;letter-spacing:0px;word-spacing:0px;fill:#000000;fill-opacity:1;stroke:none;stroke-width:1px;stroke-linecap:butt;stroke-linejoin:miter;stroke-opacity:1"
     id="text4266"
     transform="matrix(0.51104148,0,0,0.34782639,-0.76475255,7.5957422)">
    <path
       d="m 22.165379,54.277435 -0.151368,0.136719 q -0.620117,-0.249023 -0.620117,-0.830078 0,-0.04395 0.0098,-0.263672 0.01465,-0.224609 0.01465,-0.258789 0,-0.654297 -0.71289,-0.654297 l -0.136719,0 q -0.537109,0 -1.918945,0.336914 -0.69336,0.166016 -0.717774,0.166016 -0.332031,0 -0.78125,-0.322266 l 0.385742,-4.189453 q 0.263672,-2.866211 0.81543,-4.111328 0.117188,0.0293 0.361328,0.07324 -0.131836,0.444336 -0.371094,1.992188 -0.229492,1.440429 -0.27832,2.011718 -0.102539,1.137696 -0.205078,2.416993 -0.08301,1.069335 -0.08301,1.225585 l 0,0.06836 q 0,0.141601 0.03906,0.175781 0.03906,0.0293 0.214843,0.0293 0.04883,0 0.22461,-0.04883 0.180664,-0.04883 0.180664,-0.04883 0,0 0,0 0.126953,-0.01465 1.513672,-0.214844 0.883789,-0.126953 0.932617,-0.126953 0.01953,0 0.136719,-0.0049 0.117187,-0.0049 0.136718,-0.0049 0.146485,0 0.239258,0.03906 0.444336,0.175781 0.556641,0.761718 0.04395,0.219727 0.04395,1.000977 0,0.268555 0.170899,0.424805 l 0,0.219726 z"
       style="font-style:normal;font-variant:normal;font-weight:normal;font-stretch:normal;font-size:10px;font-family:Daniel;-inkscape-font-specification:Daniel"
       id="path4271"
       inkscape:connector-curvature="0" />
    <path
       d="m 28.024754,51.655365 q 0,0.522461 -0.219727,0.893555 -0.200195,0.336914 -1.420898,0.664062 -1.088868,0.292969 -1.655274,0.292969 -0.664062,0 -1.313476,-0.317383 -0.786133,-0.390625 -0.786133,-0.97168 0,-0.258789 0.297851,-0.527343 0.263672,-0.19043 0.795899,-0.717774 0.351562,-0.429687 1.289062,-0.693359 0.791016,-0.22461 1.479492,-0.22461 0.185547,0 0.556641,0.161133 0.371094,0.170899 0.507813,0.3125 0.136718,0.151367 0.302734,0.546875 0.166016,0.390625 0.166016,0.581055 z m -0.498047,-0.03906 q 0,-0.361328 -0.434571,-0.688476 -0.40039,-0.307617 -0.791015,-0.307617 -0.07324,0 -1.137696,0.209961 -0.410156,0.08301 -0.74707,0.317382 -1.152344,0.820313 -1.152344,1.132813 0,0.263672 0.629883,0.478516 0.53711,0.185546 0.874024,0.185546 0.502929,0 1.411132,-0.205078 0.830079,-0.185547 1.181641,-0.561523 0.166016,-0.170899 0.166016,-0.561524 z"
       style="font-style:normal;font-variant:normal;font-weight:normal;font-stretch:normal;font-size:10px;font-family:Daniel;-inkscape-font-specification:Daniel"
       id="path4273"
       inkscape:connector-curvature="0" />
    <path
       d="m 30.002293,45.087982 -0.278321,6.171875 q -0.02441,0.01953 -0.02441,0.117188 0,0.09766 0.02441,0.268554 0.05371,0.458985 0.253907,1.738282 -0.0098,0.04395 -0.166016,0.09766 -0.0293,0.0049 -0.05371,0.0049 -0.512695,0 -0.664062,-1.181641 -0.0049,-0.02441 -0.0049,-0.09766 0,-0.229492 0.02441,-0.942383 0.03418,-0.917969 0.08301,-1.918945 0.01465,-0.38086 0.112304,-1.416016 0.09277,-0.947266 0.09277,-1.40625 0,-1.401367 0.185547,-1.958008 l 0.07324,-0.0049 q 0.01465,0 0.02441,0 0.166015,0 0.224609,0.185547 0.04395,0.122071 0.09277,0.341797 z"
       style="font-style:normal;font-variant:normal;font-weight:normal;font-stretch:normal;font-size:10px;font-family:Daniel;-inkscape-font-specification:Daniel"
       id="path4275"
       inkscape:connector-curvature="0" />
    <path
       d="m 32.370457,48.701263 0.0049,0.01953 q 0,0.190429 -0.400391,0.463867 -0.117188,-0.03418 -0.478516,-0.400391 0.146485,-0.351562 0.317383,-0.351562 0.161133,0 0.556641,0.268554 z m -0.458985,3.730469 q -0.05859,0.791016 -0.05859,0.917969 -0.234375,0.131836 -0.419922,0.131836 -0.07813,-0.22461 -0.07813,-0.556641 0,-1.845703 0.458984,-1.958008 0.161133,0.07324 0.175781,0.249024 -0.0049,-0.06348 -0.01465,-0.06836 0.0049,0.05371 0.0049,0.131836 0,0.34668 -0.06836,1.152344 z"
       style="font-style:normal;font-variant:normal;font-weight:normal;font-stretch:normal;font-size:10px;font-family:Daniel;-inkscape-font-specification:Daniel"
       id="path4277"
       inkscape:connector-curvature="0" />
    <path
       d="m 38.762058,50.537201 q -0.634765,0.27832 -2.021484,0.722656 -1.303711,0.419922 -1.582031,0.517578 -1.171875,0.434571 -1.386719,0.712891 0.0049,0.136719 0.112305,0.195312 0.249023,0.141602 1.049804,0.141602 0.278321,0 1.28418,-0.214844 1.347656,-0.283203 2.470703,-0.59082 -0.05859,0.307617 -0.253906,0.410156 -0.205078,0.112305 -1.508789,0.498047 -1.347656,0.400391 -1.552735,0.400391 -0.06836,0 -0.458984,0.03418 -0.385742,0.0293 -0.454102,0.0293 -0.40039,0 -0.898437,-0.190429 -0.600586,-0.229493 -0.600586,-0.566407 0,-0.429687 0.268555,-0.600586 0.04395,-0.02441 0.605468,-0.283203 1.176758,-0.532226 1.972657,-0.698242 0.268554,-0.05859 0.693359,-0.244141 0.483399,-0.219726 0.683594,-0.27832 L 37.74155,50.4249 q 0.278321,-0.05859 0.488282,-0.273437 -0.136719,-1.733399 -0.136719,-4.272461 0,-1.445313 0.224609,-1.523438 0.185547,0.08301 0.239258,0.151367 0.09277,0.122071 0.112305,0.449219 0,-0.01465 0,-0.01465 -0.0049,0 -0.0049,1.123047 l 0.0049,3.286132 q 0,0.57129 0.09277,1.186524 z"
       style="font-style:normal;font-variant:normal;font-weight:normal;font-stretch:normal;font-size:10px;font-family:Daniel;-inkscape-font-specification:Daniel"
       id="path4279"
       inkscape:connector-curvature="0" />
    <path
       d="m 44.006199,53.422943 q -0.102539,0.141602 -0.224609,0.141602 -0.07813,0 -0.527344,-0.46875 -0.449219,-0.473633 -0.600586,-0.473633 0,0 0,0 0,0.0098 -1.064453,0.410156 -1.088867,0.405274 -1.386719,0.405274 -0.244141,0 -0.541992,-0.239258 -0.297852,-0.239258 -0.297852,-0.449219 0,-0.541992 1.186524,-1.264648 1.113281,-0.683594 1.699218,-0.683594 0.244141,0 0.439454,0.27832 l 0,0.209961 q -0.09766,0.141602 -0.22461,0.141602 -0.02441,0 -0.170898,-0.06348 -0.141602,-0.06348 -0.170899,-0.06348 -0.195312,0 -0.893554,0.400391 -0.664063,0.375977 -0.888672,0.561524 -0.22461,0.195312 -0.288086,0.444335 0.170898,0.161133 0.405273,0.161133 0.122071,0 1.176758,-0.405273 1.049805,-0.410156 1.269531,-0.410156 0.322266,0 0.463867,0.161132 0.03418,0.03906 0.249024,0.439454 0.161133,0.302734 0.390625,0.546875 l 0,0.219726 z"
       style="font-style:normal;font-variant:normal;font-weight:normal;font-stretch:normal;font-size:10px;font-family:Daniel;-inkscape-font-specification:Daniel"
       id="path4281"
       inkscape:connector-curvature="0" />
    <path
       d="m 48.459324,51.45517 q 0,0.05371 -0.06348,0.27832 -0.06836,0.234375 -0.06836,0.258789 0,0.01465 0,0.03418 0,0.126953 -0.01953,0.351562 -0.244141,0.576172 -0.639649,1.738281 -0.131836,0.141602 -0.517578,0.966797 0.0098,-0.0049 0.0098,-0.0098 l 0,0.0049 q 0,0.01465 -0.278321,0.766601 -0.151367,0.405274 -0.415039,1.044922 -0.03418,0.166016 -0.107421,0.561523 -0.0098,0.06836 -0.126954,0.361329 -0.09766,0.239257 -0.09766,0.361328 0,0.04395 0.01953,0.07813 -0.09277,0.15625 -0.346679,0.410156 l -0.214844,0 q -0.146484,-0.273438 -0.146484,-0.400391 0,-0.483398 0.644531,-2.138672 0.253906,-0.654296 0.625,-1.508789 0.12207,-0.219726 0.395508,-0.810547 0.09277,-0.288085 0.195312,-0.507812 0.09277,-0.141602 0.317383,-0.791016 -0.01465,-0.01465 -0.01465,-0.04883 0,-0.04883 0.02441,-0.126953 0.0098,-0.03906 0.0098,-0.06348 0,-0.04883 -0.03418,-0.04883 -0.04395,0 -0.585938,0.219727 -0.541992,0.219727 -0.576172,0.219727 -0.102539,0 -0.498047,0.06348 -0.390625,0.06348 -0.444336,0.06348 -0.395507,0 -0.717773,-0.639649 -0.283203,-0.561523 -0.283203,-1.02539 0,-0.136719 0.141601,-0.405274 l 0.283203,0 q 0.361329,1.513672 1.015625,1.513672 0.551758,0 1.328125,-0.571289 l 0.869141,-0.639648 q 0.317383,0.112304 0.317383,0.439453 z"
       style="font-style:normal;font-variant:normal;font-weight:normal;font-stretch:normal;font-size:10px;font-family:Daniel;-inkscape-font-specification:Daniel"
       id="path4283"
       inkscape:connector-curvature="0" />
  </g>
</svg>
